<mxfile host="app.diagrams.net" modified="2024-06-13T13:47:28.255Z" agent="Mozilla/5.0 (Windows NT 10.0; Win64; x64) AppleWebKit/537.36 (KHTML, like Gecko) Chrome/125.0.0.0 Safari/537.36 Edg/125.0.0.0" etag="_tC3QdjqUb207WgW_tx6" version="24.5.4" type="github">
  <diagram name="Page-1" id="e56a1550-8fbb-45ad-956c-1786394a9013">
    <mxGraphModel dx="1304" dy="790" grid="1" gridSize="10" guides="1" tooltips="1" connect="1" arrows="1" fold="1" page="1" pageScale="1" pageWidth="1100" pageHeight="850" background="none" math="0" shadow="0">
      <root>
        <mxCell id="0" />
        <mxCell id="1" parent="0" />
        <mxCell id="PdQyYLxiZAXaS2fTqrRP-87" value="" style="shape=ext;double=1;rounded=0;whiteSpace=wrap;html=1;" vertex="1" parent="1">
          <mxGeometry x="10" y="120" width="1050" height="530" as="geometry" />
        </mxCell>
        <mxCell id="PdQyYLxiZAXaS2fTqrRP-1" value="&lt;div&gt;&lt;br&gt;&lt;/div&gt;useMessenger" style="shape=module;align=left;spacingLeft=20;align=center;verticalAlign=top;whiteSpace=wrap;html=1;jettyWidth=24;jettyHeight=14;" vertex="1" parent="1">
          <mxGeometry x="840" y="190" width="160" height="70" as="geometry" />
        </mxCell>
        <mxCell id="PdQyYLxiZAXaS2fTqrRP-2" value="External app" style="shape=folder;fontStyle=1;spacingTop=10;tabWidth=40;tabHeight=14;tabPosition=left;html=1;whiteSpace=wrap;" vertex="1" parent="1">
          <mxGeometry x="30" y="145" width="120" height="65" as="geometry" />
        </mxCell>
        <mxCell id="PdQyYLxiZAXaS2fTqrRP-5" value="&lt;div&gt;&lt;br&gt;&lt;/div&gt;useMessengerAPI" style="shape=module;align=left;spacingLeft=20;align=center;verticalAlign=top;whiteSpace=wrap;html=1;jettyWidth=25;jettyHeight=14;" vertex="1" parent="1">
          <mxGeometry x="840" y="290" width="160" height="70" as="geometry" />
        </mxCell>
        <mxCell id="PdQyYLxiZAXaS2fTqrRP-6" value="&lt;p style=&quot;margin:0px;margin-top:4px;text-align:center;&quot;&gt;&lt;br&gt;&lt;b&gt;MessengerUI&lt;/b&gt;&lt;/p&gt;&lt;hr size=&quot;1&quot; style=&quot;border-style:solid;&quot;&gt;&lt;p style=&quot;margin: 0px 0px 0px 4px; font-size: 10px;&quot;&gt;&lt;font style=&quot;font-size: 10px;&quot;&gt;&lt;font style=&quot;font-size: 10px;&quot; color=&quot;#663300&quot;&gt;install&lt;/font&gt;()&lt;br&gt;&lt;font style=&quot;font-size: 10px;&quot; color=&quot;#663300&quot;&gt;addNewChat&lt;/font&gt;()&lt;/font&gt;&lt;/p&gt;&lt;hr size=&quot;1&quot; style=&quot;border-style: solid; font-size: 11px;&quot;&gt;&lt;p style=&quot;margin: 0px 0px 0px 4px; font-size: 10px;&quot;&gt;&lt;font style=&quot;font-size: 10px;&quot;&gt;emit&lt;/font&gt;&lt;font style=&quot;font-size: 10px;&quot;&gt;(&lt;/font&gt;&lt;/p&gt;&lt;p style=&quot;margin: 0px 0px 0px 4px;&quot;&gt;&lt;font style=&quot;&quot;&gt;&lt;span style=&quot;color: rgb(214, 157, 133); background-color: initial; font-family: var(--vscode-editor-font-family, &amp;quot;SF Mono&amp;quot;, Monaco, Menlo, Consolas, &amp;quot;Ubuntu Mono&amp;quot;, &amp;quot;Liberation Mono&amp;quot;, &amp;quot;DejaVu Sans Mono&amp;quot;, &amp;quot;Courier New&amp;quot;, monospace);&quot;&gt;&lt;span style=&quot;font-size: 11px;&quot;&gt;&#39;&lt;/span&gt;&lt;font style=&quot;font-size: 10px;&quot;&gt;connected&lt;/font&gt;&lt;span style=&quot;font-size: 11px;&quot;&gt;&#39;&lt;/span&gt;&lt;/span&gt;&lt;span style=&quot;font-size: 11px; background-color: initial;&quot;&gt;&amp;nbsp;|&lt;/span&gt;&lt;/font&gt;&lt;/p&gt;&lt;p style=&quot;margin: 0px 0px 0px 4px;&quot;&gt;&lt;font style=&quot;&quot;&gt;&lt;span style=&quot;background-color: initial; color: rgb(214, 157, 133); font-family: var(--vscode-editor-font-family, &amp;quot;SF Mono&amp;quot;, Monaco, Menlo, Consolas, &amp;quot;Ubuntu Mono&amp;quot;, &amp;quot;Liberation Mono&amp;quot;, &amp;quot;DejaVu Sans Mono&amp;quot;, &amp;quot;Courier New&amp;quot;, monospace);&quot;&gt;&lt;span style=&quot;font-size: 11px;&quot;&gt;&#39;&lt;/span&gt;&lt;font style=&quot;font-size: 10px;&quot;&gt;disconnected&lt;/font&gt;&lt;span style=&quot;font-size: 11px;&quot;&gt;&#39;&amp;nbsp;&lt;/span&gt;&lt;/span&gt;&lt;span style=&quot;font-size: 11px; background-color: initial; font-family: var(--vscode-editor-font-family, &amp;quot;SF Mono&amp;quot;, Monaco, Menlo, Consolas, &amp;quot;Ubuntu Mono&amp;quot;, &amp;quot;Liberation Mono&amp;quot;, &amp;quot;DejaVu Sans Mono&amp;quot;, &amp;quot;Courier New&amp;quot;, monospace);&quot;&gt;|&lt;/span&gt;&lt;/font&gt;&lt;/p&gt;&lt;p style=&quot;margin: 0px 0px 0px 4px;&quot;&gt;&lt;font style=&quot;&quot;&gt;&lt;span style=&quot;color: rgb(214, 157, 133); background-color: initial; font-family: var(--vscode-editor-font-family, &amp;quot;SF Mono&amp;quot;, Monaco, Menlo, Consolas, &amp;quot;Ubuntu Mono&amp;quot;, &amp;quot;Liberation Mono&amp;quot;, &amp;quot;DejaVu Sans Mono&amp;quot;, &amp;quot;Courier New&amp;quot;, monospace);&quot;&gt;&lt;span style=&quot;font-size: 11px;&quot;&gt;&#39;&lt;/span&gt;&lt;font style=&quot;font-size: 10px;&quot;&gt;closeMessenger&lt;/font&gt;&lt;span style=&quot;font-size: 11px;&quot;&gt;&#39; &lt;/span&gt;&lt;/span&gt;&lt;span style=&quot;background-color: initial; font-family: var(--vscode-editor-font-family, &amp;quot;SF Mono&amp;quot;, Monaco, Menlo, Consolas, &amp;quot;Ubuntu Mono&amp;quot;, &amp;quot;Liberation Mono&amp;quot;, &amp;quot;DejaVu Sans Mono&amp;quot;, &amp;quot;Courier New&amp;quot;, monospace);&quot;&gt;&lt;font style=&quot;font-size: 10px;&quot;&gt;|&lt;/font&gt;&lt;/span&gt;&lt;/font&gt;&lt;/p&gt;&lt;p style=&quot;margin: 0px 0px 0px 4px;&quot;&gt;&lt;font style=&quot;&quot;&gt;&lt;span style=&quot;color: rgb(214, 157, 133); background-color: initial; font-family: var(--vscode-editor-font-family, &amp;quot;SF Mono&amp;quot;, Monaco, Menlo, Consolas, &amp;quot;Ubuntu Mono&amp;quot;, &amp;quot;Liberation Mono&amp;quot;, &amp;quot;DejaVu Sans Mono&amp;quot;, &amp;quot;Courier New&amp;quot;, monospace);&quot;&gt;&lt;span style=&quot;font-size: 11px;&quot;&gt;&#39;&lt;/span&gt;&lt;font style=&quot;font-size: 10px;&quot;&gt;onUnreadChange&lt;/font&gt;&lt;span style=&quot;font-size: 11px;&quot;&gt;&#39; &lt;/span&gt;&lt;/span&gt;&lt;span style=&quot;background-color: initial; font-family: var(--vscode-editor-font-family, &amp;quot;SF Mono&amp;quot;, Monaco, Menlo, Consolas, &amp;quot;Ubuntu Mono&amp;quot;, &amp;quot;Liberation Mono&amp;quot;, &amp;quot;DejaVu Sans Mono&amp;quot;, &amp;quot;Courier New&amp;quot;, monospace);&quot;&gt;&lt;font style=&quot;font-size: 10px;&quot;&gt;|&lt;/font&gt;&lt;/span&gt;&lt;/font&gt;&lt;/p&gt;&lt;p style=&quot;margin: 0px 0px 0px 4px;&quot;&gt;&lt;font style=&quot;&quot;&gt;&lt;span style=&quot;color: rgb(214, 157, 133); background-color: initial; font-family: var(--vscode-editor-font-family, &amp;quot;SF Mono&amp;quot;, Monaco, Menlo, Consolas, &amp;quot;Ubuntu Mono&amp;quot;, &amp;quot;Liberation Mono&amp;quot;, &amp;quot;DejaVu Sans Mono&amp;quot;, &amp;quot;Courier New&amp;quot;, monospace);&quot;&gt;&lt;span style=&quot;font-size: 11px;&quot;&gt;&#39;&lt;/span&gt;&lt;font style=&quot;font-size: 10px;&quot;&gt;onSellerBillingClick&lt;/font&gt;&lt;span style=&quot;font-size: 11px;&quot;&gt;&#39; &lt;/span&gt;&lt;/span&gt;&lt;span style=&quot;background-color: initial; font-family: var(--vscode-editor-font-family, &amp;quot;SF Mono&amp;quot;, Monaco, Menlo, Consolas, &amp;quot;Ubuntu Mono&amp;quot;, &amp;quot;Liberation Mono&amp;quot;, &amp;quot;DejaVu Sans Mono&amp;quot;, &amp;quot;Courier New&amp;quot;, monospace);&quot;&gt;&lt;font style=&quot;font-size: 10px;&quot;&gt;|&lt;/font&gt;&lt;/span&gt;&lt;/font&gt;&lt;/p&gt;&lt;p style=&quot;margin: 0px 0px 0px 4px;&quot;&gt;&lt;span style=&quot;color: rgb(214, 157, 133); background-color: initial; font-family: var(--vscode-editor-font-family, &amp;quot;SF Mono&amp;quot;, Monaco, Menlo, Consolas, &amp;quot;Ubuntu Mono&amp;quot;, &amp;quot;Liberation Mono&amp;quot;, &amp;quot;DejaVu Sans Mono&amp;quot;, &amp;quot;Courier New&amp;quot;, monospace);&quot;&gt;&lt;font style=&quot;font-size: 11px;&quot;&gt;&#39;&lt;/font&gt;&lt;font style=&quot;font-size: 10px;&quot;&gt;onSellerSettingsClick&lt;/font&gt;&lt;font style=&quot;font-size: 11px;&quot;&gt;&#39;&lt;/font&gt;&lt;/span&gt;&lt;/p&gt;&lt;p style=&quot;margin: 0px 0px 0px 4px;&quot;&gt;&lt;span style=&quot;background-color: initial;&quot;&gt;&lt;font style=&quot;font-size: 10px;&quot;&gt;)&lt;/font&gt;&lt;/span&gt;&lt;/p&gt;&lt;p style=&quot;margin:0px;margin-left:4px;&quot;&gt;&lt;br&gt;&lt;/p&gt;" style="verticalAlign=top;align=left;overflow=fill;html=1;whiteSpace=wrap;" vertex="1" parent="1">
          <mxGeometry x="510" y="160" width="190" height="200" as="geometry" />
        </mxCell>
        <mxCell id="PdQyYLxiZAXaS2fTqrRP-12" value="" style="endArrow=open;endSize=12;dashed=1;html=1;rounded=0;exitX=0;exitY=0;exitDx=120;exitDy=65;exitPerimeter=0;entryX=0;entryY=0.25;entryDx=0;entryDy=0;" edge="1" parent="1" source="PdQyYLxiZAXaS2fTqrRP-2" target="PdQyYLxiZAXaS2fTqrRP-6">
          <mxGeometry width="160" relative="1" as="geometry">
            <mxPoint x="270" y="260" as="sourcePoint" />
            <mxPoint x="430" y="260" as="targetPoint" />
          </mxGeometry>
        </mxCell>
        <mxCell id="PdQyYLxiZAXaS2fTqrRP-24" value="&lt;font color=&quot;#00b54e&quot;&gt;addNewChat()&lt;/font&gt;" style="edgeLabel;html=1;align=center;verticalAlign=middle;resizable=0;points=[];" vertex="1" connectable="0" parent="PdQyYLxiZAXaS2fTqrRP-12">
          <mxGeometry x="0.0077" y="-1" relative="1" as="geometry">
            <mxPoint as="offset" />
          </mxGeometry>
        </mxCell>
        <mxCell id="PdQyYLxiZAXaS2fTqrRP-21" value="" style="html=1;verticalAlign=bottom;endArrow=open;dashed=1;endSize=8;curved=0;rounded=0;exitX=0;exitY=0.75;exitDx=0;exitDy=0;entryX=0.75;entryY=1;entryDx=0;entryDy=0;entryPerimeter=0;" edge="1" parent="1" source="PdQyYLxiZAXaS2fTqrRP-6" target="PdQyYLxiZAXaS2fTqrRP-2">
          <mxGeometry x="0.3486" y="34" relative="1" as="geometry">
            <mxPoint x="605" y="145" as="sourcePoint" />
            <mxPoint x="240" y="45" as="targetPoint" />
            <Array as="points">
              <mxPoint x="120" y="310" />
            </Array>
            <mxPoint as="offset" />
          </mxGeometry>
        </mxCell>
        <mxCell id="PdQyYLxiZAXaS2fTqrRP-26" value="&lt;font color=&quot;#ff8000&quot;&gt;emit()&lt;/font&gt;" style="edgeLabel;html=1;align=center;verticalAlign=middle;resizable=0;points=[];" vertex="1" connectable="0" parent="PdQyYLxiZAXaS2fTqrRP-21">
          <mxGeometry x="-0.2792" relative="1" as="geometry">
            <mxPoint as="offset" />
          </mxGeometry>
        </mxCell>
        <mxCell id="PdQyYLxiZAXaS2fTqrRP-25" value="&lt;font color=&quot;#00b54e&quot;&gt;install()&lt;/font&gt;" style="html=1;verticalAlign=bottom;endArrow=block;curved=0;rounded=0;entryX=0;entryY=0;entryDx=0;entryDy=0;exitX=0;exitY=0;exitDx=120;exitDy=14;exitPerimeter=0;" edge="1" parent="1" source="PdQyYLxiZAXaS2fTqrRP-2" target="PdQyYLxiZAXaS2fTqrRP-6">
          <mxGeometry width="80" relative="1" as="geometry">
            <mxPoint x="160" y="159" as="sourcePoint" />
            <mxPoint x="510" y="300" as="targetPoint" />
          </mxGeometry>
        </mxCell>
        <mxCell id="PdQyYLxiZAXaS2fTqrRP-28" value="" style="endArrow=block;startArrow=block;endFill=1;startFill=1;html=1;rounded=0;exitX=1;exitY=0.25;exitDx=0;exitDy=0;entryX=0;entryY=0;entryDx=0;entryDy=21;entryPerimeter=0;" edge="1" parent="1" source="PdQyYLxiZAXaS2fTqrRP-6" target="PdQyYLxiZAXaS2fTqrRP-1">
          <mxGeometry width="160" relative="1" as="geometry">
            <mxPoint x="830" y="290" as="sourcePoint" />
            <mxPoint x="990" y="290" as="targetPoint" />
          </mxGeometry>
        </mxCell>
        <mxCell id="PdQyYLxiZAXaS2fTqrRP-30" value="" style="endArrow=block;startArrow=block;endFill=1;startFill=1;html=1;rounded=0;entryX=0;entryY=0;entryDx=0;entryDy=49;entryPerimeter=0;exitX=0;exitY=0;exitDx=0;exitDy=21;exitPerimeter=0;" edge="1" parent="1" source="PdQyYLxiZAXaS2fTqrRP-5" target="PdQyYLxiZAXaS2fTqrRP-1">
          <mxGeometry width="160" relative="1" as="geometry">
            <mxPoint x="720" y="320" as="sourcePoint" />
            <mxPoint x="880" y="320" as="targetPoint" />
            <Array as="points">
              <mxPoint x="820" y="310" />
              <mxPoint x="820" y="240" />
            </Array>
          </mxGeometry>
        </mxCell>
        <mxCell id="PdQyYLxiZAXaS2fTqrRP-42" value="API" style="ellipse;shape=cloud;whiteSpace=wrap;html=1;align=center;" vertex="1" parent="1">
          <mxGeometry x="880" y="395" width="100" height="60" as="geometry" />
        </mxCell>
        <mxCell id="PdQyYLxiZAXaS2fTqrRP-43" value="" style="endArrow=block;startArrow=block;endFill=1;startFill=1;html=1;rounded=0;entryX=1;entryY=0.5;entryDx=0;entryDy=0;exitX=0.96;exitY=0.7;exitDx=0;exitDy=0;exitPerimeter=0;" edge="1" parent="1" source="PdQyYLxiZAXaS2fTqrRP-42" target="PdQyYLxiZAXaS2fTqrRP-5">
          <mxGeometry width="160" relative="1" as="geometry">
            <mxPoint x="850" y="412" as="sourcePoint" />
            <mxPoint x="850" y="340" as="targetPoint" />
            <Array as="points">
              <mxPoint x="1040" y="437" />
              <mxPoint x="1040" y="325" />
            </Array>
          </mxGeometry>
        </mxCell>
        <mxCell id="PdQyYLxiZAXaS2fTqrRP-44" value="Main components" style="swimlane;startSize=20;horizontal=1;childLayout=treeLayout;horizontalTree=0;sortEdges=1;resizable=0;containerType=tree;fontSize=12;" vertex="1" parent="1">
          <mxGeometry x="465" y="410" width="280" height="190" as="geometry" />
        </mxCell>
        <mxCell id="PdQyYLxiZAXaS2fTqrRP-45" value="Main layout" style="whiteSpace=wrap;html=1;" vertex="1" parent="PdQyYLxiZAXaS2fTqrRP-44">
          <mxGeometry x="90" y="40" width="100" height="40" as="geometry" />
        </mxCell>
        <mxCell id="PdQyYLxiZAXaS2fTqrRP-46" value="Chat" style="whiteSpace=wrap;html=1;" vertex="1" parent="PdQyYLxiZAXaS2fTqrRP-44">
          <mxGeometry x="20" y="130" width="100" height="40" as="geometry" />
        </mxCell>
        <mxCell id="PdQyYLxiZAXaS2fTqrRP-47" value="" style="edgeStyle=elbowEdgeStyle;elbow=vertical;html=1;rounded=1;curved=0;sourcePerimeterSpacing=0;targetPerimeterSpacing=0;startSize=6;endSize=6;" edge="1" parent="PdQyYLxiZAXaS2fTqrRP-44" source="PdQyYLxiZAXaS2fTqrRP-45" target="PdQyYLxiZAXaS2fTqrRP-46">
          <mxGeometry relative="1" as="geometry" />
        </mxCell>
        <mxCell id="PdQyYLxiZAXaS2fTqrRP-48" value="Chat list" style="whiteSpace=wrap;html=1;" vertex="1" parent="PdQyYLxiZAXaS2fTqrRP-44">
          <mxGeometry x="160" y="130" width="100" height="40" as="geometry" />
        </mxCell>
        <mxCell id="PdQyYLxiZAXaS2fTqrRP-49" value="" style="edgeStyle=elbowEdgeStyle;elbow=vertical;html=1;rounded=1;curved=0;sourcePerimeterSpacing=0;targetPerimeterSpacing=0;startSize=6;endSize=6;" edge="1" parent="PdQyYLxiZAXaS2fTqrRP-44" source="PdQyYLxiZAXaS2fTqrRP-45" target="PdQyYLxiZAXaS2fTqrRP-48">
          <mxGeometry relative="1" as="geometry" />
        </mxCell>
        <mxCell id="PdQyYLxiZAXaS2fTqrRP-51" value="" style="endArrow=none;html=1;edgeStyle=orthogonalEdgeStyle;rounded=0;exitX=0.5;exitY=1;exitDx=0;exitDy=0;entryX=0.5;entryY=0;entryDx=0;entryDy=0;" edge="1" parent="1" source="PdQyYLxiZAXaS2fTqrRP-6" target="PdQyYLxiZAXaS2fTqrRP-44">
          <mxGeometry relative="1" as="geometry">
            <mxPoint x="690" y="390" as="sourcePoint" />
            <mxPoint x="850" y="390" as="targetPoint" />
          </mxGeometry>
        </mxCell>
        <mxCell id="PdQyYLxiZAXaS2fTqrRP-52" value="parent" style="edgeLabel;resizable=0;html=1;align=left;verticalAlign=bottom;" connectable="0" vertex="1" parent="PdQyYLxiZAXaS2fTqrRP-51">
          <mxGeometry x="-1" relative="1" as="geometry" />
        </mxCell>
        <mxCell id="PdQyYLxiZAXaS2fTqrRP-53" value="child" style="edgeLabel;resizable=0;html=1;align=right;verticalAlign=bottom;" connectable="0" vertex="1" parent="PdQyYLxiZAXaS2fTqrRP-51">
          <mxGeometry x="1" relative="1" as="geometry" />
        </mxCell>
        <mxCell id="PdQyYLxiZAXaS2fTqrRP-73" value="Common components" style="swimlane;startSize=20;horizontal=1;containerType=tree;" vertex="1" parent="1">
          <mxGeometry x="120" y="410" width="290" height="190" as="geometry" />
        </mxCell>
        <mxCell id="PdQyYLxiZAXaS2fTqrRP-75" value="component" style="whiteSpace=wrap;html=1;treeFolding=1;treeMoving=1;newEdgeStyle={&quot;edgeStyle&quot;:&quot;elbowEdgeStyle&quot;,&quot;startArrow&quot;:&quot;none&quot;,&quot;endArrow&quot;:&quot;none&quot;};" vertex="1" parent="PdQyYLxiZAXaS2fTqrRP-73">
          <mxGeometry x="10" y="60" width="90" height="20" as="geometry" />
        </mxCell>
        <mxCell id="PdQyYLxiZAXaS2fTqrRP-78" value="component" style="whiteSpace=wrap;html=1;treeFolding=1;treeMoving=1;newEdgeStyle={&quot;edgeStyle&quot;:&quot;elbowEdgeStyle&quot;,&quot;startArrow&quot;:&quot;none&quot;,&quot;endArrow&quot;:&quot;none&quot;};" vertex="1" parent="PdQyYLxiZAXaS2fTqrRP-73">
          <mxGeometry x="120" y="75" width="90" height="25" as="geometry" />
        </mxCell>
        <mxCell id="PdQyYLxiZAXaS2fTqrRP-79" value="component" style="whiteSpace=wrap;html=1;treeFolding=1;treeMoving=1;newEdgeStyle={&quot;edgeStyle&quot;:&quot;elbowEdgeStyle&quot;,&quot;startArrow&quot;:&quot;none&quot;,&quot;endArrow&quot;:&quot;none&quot;};" vertex="1" parent="PdQyYLxiZAXaS2fTqrRP-73">
          <mxGeometry x="170" y="120" width="100" height="30" as="geometry" />
        </mxCell>
        <mxCell id="PdQyYLxiZAXaS2fTqrRP-80" value="component" style="whiteSpace=wrap;html=1;treeFolding=1;treeMoving=1;newEdgeStyle={&quot;edgeStyle&quot;:&quot;elbowEdgeStyle&quot;,&quot;startArrow&quot;:&quot;none&quot;,&quot;endArrow&quot;:&quot;none&quot;};" vertex="1" parent="PdQyYLxiZAXaS2fTqrRP-73">
          <mxGeometry x="30" y="140" width="100" height="20" as="geometry" />
        </mxCell>
        <mxCell id="PdQyYLxiZAXaS2fTqrRP-77" value="component" style="whiteSpace=wrap;html=1;treeFolding=1;treeMoving=1;newEdgeStyle={&quot;edgeStyle&quot;:&quot;elbowEdgeStyle&quot;,&quot;startArrow&quot;:&quot;none&quot;,&quot;endArrow&quot;:&quot;none&quot;};" vertex="1" collapsed="1" parent="PdQyYLxiZAXaS2fTqrRP-73">
          <mxGeometry x="180" y="30" width="90" height="30" as="geometry" />
        </mxCell>
        <mxCell id="PdQyYLxiZAXaS2fTqrRP-81" value="" style="endArrow=none;html=1;edgeStyle=orthogonalEdgeStyle;rounded=0;exitX=0;exitY=0.5;exitDx=0;exitDy=0;entryX=1;entryY=0.5;entryDx=0;entryDy=0;" edge="1" parent="1" source="PdQyYLxiZAXaS2fTqrRP-44" target="PdQyYLxiZAXaS2fTqrRP-73">
          <mxGeometry relative="1" as="geometry">
            <mxPoint x="615" y="370" as="sourcePoint" />
            <mxPoint x="615" y="420" as="targetPoint" />
            <Array as="points" />
          </mxGeometry>
        </mxCell>
        <mxCell id="PdQyYLxiZAXaS2fTqrRP-82" value="parent" style="edgeLabel;resizable=0;html=1;align=left;verticalAlign=bottom;" connectable="0" vertex="1" parent="PdQyYLxiZAXaS2fTqrRP-81">
          <mxGeometry x="-1" relative="1" as="geometry" />
        </mxCell>
        <mxCell id="PdQyYLxiZAXaS2fTqrRP-83" value="child" style="edgeLabel;resizable=0;html=1;align=right;verticalAlign=bottom;" connectable="0" vertex="1" parent="PdQyYLxiZAXaS2fTqrRP-81">
          <mxGeometry x="1" relative="1" as="geometry" />
        </mxCell>
        <mxCell id="PdQyYLxiZAXaS2fTqrRP-88" value="" style="endArrow=block;startArrow=block;endFill=1;startFill=1;html=1;rounded=0;entryX=0;entryY=0;entryDx=0;entryDy=21;entryPerimeter=0;exitX=1;exitY=0.5;exitDx=0;exitDy=0;" edge="1" parent="1" source="PdQyYLxiZAXaS2fTqrRP-44" target="PdQyYLxiZAXaS2fTqrRP-1">
          <mxGeometry width="160" relative="1" as="geometry">
            <mxPoint x="850" y="410" as="sourcePoint" />
            <mxPoint x="850" y="338" as="targetPoint" />
            <Array as="points">
              <mxPoint x="770" y="505" />
              <mxPoint x="770" y="211" />
            </Array>
          </mxGeometry>
        </mxCell>
        <mxCell id="PdQyYLxiZAXaS2fTqrRP-89" value="" style="endArrow=block;startArrow=block;endFill=1;startFill=1;html=1;rounded=0;entryX=0;entryY=0;entryDx=0;entryDy=49;entryPerimeter=0;exitX=1;exitY=0.5;exitDx=0;exitDy=0;" edge="1" parent="1" target="PdQyYLxiZAXaS2fTqrRP-5">
          <mxGeometry width="160" relative="1" as="geometry">
            <mxPoint x="745" y="584" as="sourcePoint" />
            <mxPoint x="840" y="290" as="targetPoint" />
            <Array as="points">
              <mxPoint x="820" y="584" />
              <mxPoint x="820" y="339" />
            </Array>
          </mxGeometry>
        </mxCell>
      </root>
    </mxGraphModel>
  </diagram>
</mxfile>
